<?xml version="1.0" encoding="utf-8"?>
<!-- Generator: Adobe Illustrator 16.0.0, SVG Export Plug-In . SVG Version: 6.00 Build 0)  -->
<!DOCTYPE svg PUBLIC "-//W3C//DTD SVG 1.1//EN" "http://www.w3.org/Graphics/SVG/1.1/DTD/svg11.dtd">
<svg version="1.1" id="Layer_1" xmlns="http://www.w3.org/2000/svg" xmlns:xlink="http://www.w3.org/1999/xlink" x="0px" y="0px"
	 width="772.168px" height="97.998px" viewBox="0 0 772.168 97.998" enable-background="new 0 0 772.168 97.998"
	 xml:space="preserve">
<g id="svgGroup">
	<linearGradient id="SVGID_1_" gradientUnits="userSpaceOnUse" x1="38.4846" y1="49.6816" x2="733.4358" y2="49.6816">
		<stop  offset="0" style="stop-color:#000000"/>
		<stop  offset="0.5161" style="stop-color:#1D4ED8"/>
		<stop  offset="0.9409" style="stop-color:#5B21B6"/>
	</linearGradient>
	<linearGradient id="SVGID_2_" gradientUnits="userSpaceOnUse" x1="38.1301" y1="49.6816" x2="733.7903" y2="49.6816">
		<stop  offset="0" style="stop-color:#FFFFFF"/>
		<stop  offset="0.8548" style="stop-color:#ACACAC"/>
	</linearGradient>
	
		<path vector-effect="non-scaling-stroke" fill="url(#SVGID_1_)" stroke="url(#SVGID_2_)" stroke-width="0.7087" stroke-linecap="round" d="
		M378.885,15.031v58.141h-11.514V35.641L347.113,71.28c-0.499,0.908-1.193,1.598-2.087,2.066c-0.887,0.467-1.876,0.709-2.879,0.702
		c-0.974,0.005-1.935-0.235-2.79-0.702c-0.854-0.466-1.557-1.168-2.021-2.023c-0.008-0.016-0.017-0.029-0.024-0.043l-20.346-35.639
		v37.531H305.54V15.031c0-1.318,0.388-2.49,1.164-3.516c0.758-1.012,1.833-1.74,3.055-2.065c0.465-0.112,0.941-0.168,1.42-0.169
		c0.141,0,0.284,0.005,0.425,0.016c0.609,0.042,1.209,0.176,1.779,0.395c0.571,0.22,1.092,0.528,1.561,0.923
		c0.469,0.396,0.864,0.871,1.188,1.428l26.015,45.22l26.018-45.22c0.637-1.082,1.62-1.918,2.791-2.373
		c0.688-0.275,1.422-0.417,2.163-0.417c0.508,0,1.023,0.065,1.55,0.197c1.229,0.352,2.24,1.04,3.03,2.065
		C378.482,12.519,378.9,13.758,378.885,15.031z M622.605,41.662v36.079c0.003,0.935-0.06,1.869-0.188,2.796
		c-0.116,0.847-0.304,1.685-0.561,2.499c-0.279,0.893-0.634,1.758-1.057,2.592c-0.273,0.533-0.58,1.046-0.921,1.539
		c-0.776,1.137-1.724,2.145-2.806,2.994c-0.018,0.012-0.034,0.025-0.052,0.039c-1.049,0.813-2.193,1.501-3.406,2.043
		c-1.153,0.518-2.362,0.908-3.604,1.164c-0.691,0.145-1.393,0.248-2.097,0.313c-0.449,0.041-0.901,0.061-1.354,0.061h-20.609V82.356
		h20.609c0.439,0.002,0.877-0.035,1.31-0.111c0.479-0.088,0.901-0.229,1.274-0.422c0.33-0.166,0.631-0.389,0.889-0.654
		c0.416-0.441,0.723-0.977,0.892-1.559c0.12-0.393,0.197-0.824,0.23-1.297c0.013-0.189,0.021-0.381,0.021-0.572V41.662
		c0.003-0.435-0.034-0.869-0.112-1.296c-0.162-0.873-0.506-1.576-1.029-2.109c-0.399-0.399-0.889-0.697-1.426-0.87
		c-0.379-0.128-0.803-0.215-1.268-0.26c-0.26-0.024-0.521-0.036-0.779-0.035h-20.609c-0.487-0.004-0.973,0.056-1.444,0.178
		c-0.726,0.188-1.381,0.575-1.896,1.118c-0.706,0.743-1.133,1.709-1.207,2.731c-0.016,0.181-0.022,0.362-0.022,0.543V57.13
		c0,1.107,0.217,2.021,0.65,2.744c0.149,0.25,0.329,0.479,0.534,0.684c0.44,0.434,0.98,0.752,1.57,0.928
		c0.397,0.123,0.838,0.205,1.317,0.238c0.193,0.014,0.39,0.021,0.583,0.021h20.522v11.427h-20.609
		c-0.759-0.003-1.516-0.06-2.266-0.171c-0.389-0.057-0.777-0.123-1.163-0.203c-1.192-0.25-2.355-0.625-3.47-1.117
		c-0.037-0.016-0.074-0.031-0.111-0.047c-1.186-0.527-2.322-1.209-3.405-2.045c-1.1-0.852-2.06-1.871-2.848-3.018
		c-0.003-0.006-0.007-0.01-0.009-0.014c-0.557-0.812-1.027-1.677-1.407-2.582c-0.214-0.509-0.405-1.025-0.571-1.55
		c-0.297-0.95-0.503-1.929-0.612-2.918c-0.092-0.788-0.137-1.584-0.135-2.379V41.662c0.003-0.758,0.061-1.515,0.169-2.265
		c0.058-0.39,0.125-0.778,0.205-1.164c0.25-1.192,0.625-2.355,1.115-3.471c0.016-0.037,0.033-0.074,0.049-0.11
		c0.527-1.187,1.209-2.322,2.045-3.406c0.853-1.1,1.869-2.061,3.019-2.848c0.004-0.003,0.009-0.006,0.014-0.009
		c0.849-0.582,1.756-1.072,2.707-1.463c0.46-0.191,0.928-0.362,1.401-0.514c1.554-0.499,3.312-0.748,5.273-0.748h20.609
		c0.705,0.002,1.41,0.051,2.109,0.146c0.449,0.061,0.896,0.136,1.34,0.227c1.239,0.256,2.448,0.647,3.604,1.165
		c1.188,0.527,2.322,1.209,3.406,2.044c1.1,0.853,2.061,1.871,2.847,3.019c0.003,0.004,0.007,0.009,0.01,0.014
		c0.582,0.848,1.072,1.755,1.465,2.707c0.19,0.46,0.361,0.927,0.514,1.402C622.356,37.941,622.605,39.699,622.605,41.662z
		 M149.094,41.398v16.041c-0.003,0.922-0.09,1.842-0.257,2.746c-0.146,0.803-0.338,1.596-0.577,2.373
		c-0.57,1.854-1.486,3.586-2.703,5.098c-0.927,1.156-2.029,2.158-3.265,2.977c-0.521,0.346-1.06,0.666-1.613,0.957
		c-1.89,0.992-4.162,1.518-6.817,1.576c-0.167,0.006-0.333,0.007-0.5,0.007h-20.609c-0.921-0.005-1.841-0.091-2.748-0.259
		c-0.802-0.146-1.593-0.339-2.372-0.578c-1.855-0.568-3.585-1.484-5.098-2.701c-1.156-0.928-2.16-2.029-2.977-3.265
		c-0.347-0.521-0.667-1.06-0.957-1.614c-0.993-1.889-1.519-4.162-1.577-6.816c-0.004-0.166-0.005-0.334-0.005-0.5
		c0.003-0.883,0.083-1.764,0.235-2.633c0.147-0.848,0.348-1.686,0.6-2.51c0.557-1.846,1.457-3.551,2.703-5.119
		c0.927-1.155,2.028-2.159,3.264-2.976c0.521-0.347,1.06-0.667,1.614-0.958c1.889-0.993,4.161-1.519,6.817-1.577
		c0.167-0.004,0.333-0.005,0.5-0.005h20.609V52.56h-20.609c-0.498-0.004-0.993,0.053-1.478,0.172
		c-0.821,0.189-1.563,0.631-2.127,1.258c-0.737,0.83-1.179,1.882-1.251,2.99c-0.015,0.182-0.022,0.363-0.022,0.547
		c-0.004,0.5,0.059,1,0.189,1.482c0.212,0.786,0.66,1.488,1.281,2.012c0.972,0.832,2.216,1.275,3.495,1.252h20.521
		c0.497,0.004,0.993-0.051,1.478-0.166c0.819-0.186,1.561-0.621,2.127-1.239c0.719-0.796,1.156-1.808,1.243-2.873
		c0.021-0.216,0.032-0.429,0.032-0.642V41.398c0.004-0.523-0.062-1.046-0.194-1.552c-0.203-0.767-0.615-1.462-1.19-2.008
		c-0.923-0.879-2.087-1.318-3.494-1.318H108.27V25.666h25.093c0.923,0.004,1.842,0.09,2.748,0.257
		c0.802,0.146,1.594,0.339,2.371,0.578c1.855,0.569,3.585,1.486,5.099,2.703c1.155,0.927,2.16,2.028,2.976,3.264
		c0.347,0.52,0.667,1.059,0.958,1.614c0.992,1.889,1.519,4.162,1.576,6.816C149.092,41.064,149.094,41.231,149.094,41.398z
		 M439.704,41.398v16.041c-0.004,0.922-0.091,1.842-0.258,2.746c-0.146,0.803-0.339,1.596-0.578,2.373
		c-0.567,1.854-1.485,3.586-2.703,5.098c-0.926,1.156-2.026,2.158-3.264,2.977c-0.521,0.346-1.059,0.666-1.613,0.957
		c-1.889,0.992-4.161,1.518-6.815,1.576c-0.167,0.006-0.334,0.007-0.501,0.007h-20.609c-0.922-0.005-1.841-0.091-2.749-0.259
		c-0.801-0.146-1.593-0.339-2.371-0.578c-1.854-0.568-3.586-1.484-5.098-2.701c-1.155-0.928-2.159-2.029-2.976-3.265
		c-0.35-0.521-0.667-1.06-0.958-1.614c-0.992-1.889-1.519-4.162-1.576-6.816c-0.004-0.166-0.006-0.334-0.006-0.5
		c0.004-0.883,0.082-1.764,0.235-2.633c0.148-0.848,0.349-1.686,0.601-2.51c0.557-1.846,1.457-3.551,2.703-5.119
		c0.926-1.155,2.026-2.159,3.264-2.976c0.521-0.347,1.059-0.667,1.613-0.958c1.889-0.993,4.16-1.519,6.815-1.577
		c0.167-0.004,0.334-0.005,0.501-0.005h20.609V52.56h-20.609c-0.497-0.004-0.994,0.053-1.478,0.172
		c-0.82,0.189-1.563,0.631-2.127,1.258c-0.738,0.83-1.18,1.882-1.252,2.99c-0.016,0.182-0.022,0.363-0.022,0.547
		c-0.005,0.5,0.06,1,0.19,1.482c0.213,0.786,0.659,1.488,1.282,2.012c0.972,0.832,2.216,1.275,3.493,1.252h20.521
		c0.497,0.004,0.993-0.051,1.478-0.166c0.818-0.186,1.562-0.621,2.126-1.239c0.719-0.796,1.157-1.806,1.243-2.873
		c0.021-0.216,0.032-0.429,0.031-0.642V41.398c0.006-0.523-0.062-1.046-0.194-1.552c-0.203-0.767-0.614-1.462-1.189-2.008
		c-0.923-0.879-2.088-1.318-3.493-1.318h-25.093V25.666h25.093c0.922,0.004,1.841,0.09,2.747,0.257
		c0.802,0.146,1.595,0.339,2.373,0.578c1.854,0.569,3.586,1.486,5.098,2.703c1.155,0.927,2.159,2.028,2.976,3.264
		c0.348,0.52,0.667,1.059,0.958,1.614c0.992,1.889,1.519,4.162,1.576,6.816C439.702,41.064,439.704,41.231,439.704,41.398z
		 M561.17,41.398v16.041c-0.005,0.922-0.092,1.842-0.259,2.746c-0.146,0.803-0.339,1.596-0.578,2.373
		c-0.567,1.854-1.485,3.586-2.702,5.098c-0.927,1.156-2.027,2.158-3.265,2.977c-0.521,0.346-1.059,0.666-1.612,0.957
		c-1.89,0.992-4.162,1.518-6.816,1.576c-0.167,0.006-0.334,0.007-0.501,0.007h-20.609c-0.922-0.005-1.841-0.091-2.749-0.259
		c-0.801-0.146-1.593-0.339-2.37-0.578c-1.855-0.568-3.586-1.484-5.099-2.701c-1.155-0.928-2.159-2.029-2.976-3.265
		c-0.35-0.521-0.667-1.06-0.958-1.614c-0.993-1.889-1.52-4.162-1.576-6.816c-0.004-0.166-0.006-0.334-0.006-0.5
		c0.004-0.883,0.082-1.764,0.234-2.633c0.149-0.848,0.35-1.686,0.601-2.51c0.558-1.846,1.458-3.551,2.702-5.119
		c0.928-1.155,2.028-2.159,3.266-2.976c0.521-0.347,1.06-0.667,1.613-0.958c1.889-0.993,4.161-1.519,6.815-1.577
		c0.167-0.004,0.334-0.005,0.501-0.005h20.609V52.56h-20.609c-0.497-0.004-0.994,0.053-1.478,0.172
		c-0.82,0.189-1.563,0.631-2.126,1.258c-0.739,0.83-1.181,1.882-1.253,2.99c-0.016,0.182-0.022,0.363-0.021,0.547
		c-0.006,0.5,0.06,1,0.189,1.482c0.213,0.786,0.66,1.488,1.283,2.012c0.972,0.832,2.215,1.275,3.492,1.252h20.521
		c0.497,0.004,0.993-0.051,1.478-0.166c0.818-0.186,1.562-0.621,2.126-1.239c0.72-0.796,1.157-1.806,1.245-2.873
		c0.021-0.216,0.03-0.429,0.029-0.642V41.398c0.006-0.523-0.061-1.046-0.194-1.552c-0.203-0.767-0.613-1.462-1.189-2.008
		c-0.922-0.879-2.087-1.318-3.493-1.318h-25.093V25.666h25.093c0.922,0.004,1.841,0.09,2.747,0.257
		c0.802,0.146,1.595,0.339,2.373,0.578c1.854,0.569,3.586,1.486,5.098,2.703c1.155,0.927,2.159,2.028,2.977,3.264
		c0.349,0.52,0.667,1.059,0.958,1.614c0.991,1.889,1.518,4.162,1.575,6.816C561.168,41.064,561.17,41.231,561.17,41.398z
		 M668.44,57.13h-20.61V46.276h20.609c0.498,0.005,0.993-0.053,1.479-0.169c0.82-0.191,1.563-0.631,2.126-1.259
		c0.738-0.83,1.18-1.882,1.252-2.99c0.016-0.183,0.022-0.365,0.021-0.548c0.005-0.501-0.058-1.001-0.185-1.486
		c-0.204-0.785-0.638-1.491-1.244-2.029c-0.92-0.827-2.117-1.281-3.354-1.274c-0.03,0-0.063,0-0.095,0h-20.609
		c-0.498-0.004-0.993,0.053-1.478,0.169c-0.821,0.191-1.563,0.631-2.126,1.259c-0.738,0.829-1.18,1.881-1.252,2.989
		c-0.016,0.183-0.023,0.366-0.022,0.549v15.952c-0.005,0.504,0.057,1.008,0.18,1.498c0.2,0.795,0.636,1.515,1.25,2.062
		c0.828,0.737,1.881,1.181,2.987,1.252c0.183,0.017,0.365,0.022,0.549,0.022h20.521v10.899h-20.609
		c-0.922-0.005-1.842-0.091-2.748-0.259c-0.801-0.146-1.594-0.339-2.372-0.578c-1.855-0.568-3.584-1.484-5.099-2.701
		c-1.154-0.928-2.158-2.029-2.975-3.265c-0.349-0.521-0.667-1.06-0.958-1.614c-0.992-1.889-1.52-4.162-1.577-6.816
		c-0.003-0.166-0.005-0.334-0.005-0.5v-16.04c0.005-0.922,0.091-1.841,0.257-2.748c0.146-0.802,0.34-1.594,0.578-2.373
		c0.568-1.855,1.487-3.585,2.703-5.098c0.927-1.155,2.026-2.159,3.265-2.975c0.521-0.348,1.061-0.667,1.614-0.958
		c1.889-0.993,4.161-1.519,6.814-1.577c0.167-0.003,0.334-0.005,0.501-0.005h20.609c0.922,0.004,1.842,0.09,2.748,0.257
		c0.801,0.146,1.594,0.339,2.373,0.578c1.854,0.569,3.584,1.486,5.098,2.703c1.154,0.927,2.158,2.028,2.976,3.264
		c0.348,0.52,0.667,1.059,0.958,1.614c0.991,1.889,1.518,4.162,1.577,6.816c0.003,0.167,0.005,0.334,0.005,0.501
		c-0.005,0.922-0.091,1.841-0.259,2.748c-0.146,0.801-0.339,1.594-0.576,2.372c-0.57,1.855-1.487,3.584-2.703,5.099
		c-0.928,1.153-2.028,2.157-3.265,2.975c-0.521,0.349-1.061,0.668-1.614,0.959c-1.89,0.992-4.161,1.519-6.815,1.575
		C668.774,57.128,668.607,57.13,668.44,57.13z M188.733,73.172h-30.938V61.745h30.851c0.451,0.003,0.9-0.035,1.344-0.115
		c0.494-0.093,0.935-0.242,1.321-0.447c0.313-0.164,0.602-0.375,0.852-0.625c0.449-0.457,0.776-1.021,0.95-1.64
		c0.118-0.396,0.192-0.828,0.222-1.301c0.01-0.161,0.015-0.325,0.014-0.487c-0.021-0.622-0.126-1.24-0.313-1.835
		c-0.455-1.382-1.39-2.239-2.802-2.575c-0.491-0.111-0.995-0.164-1.5-0.16h-17.709c-0.965,0.006-1.929-0.065-2.883-0.215
		c-1.065-0.174-2.043-0.449-2.932-0.826c-0.203-0.086-0.403-0.179-0.602-0.276c-0.918-0.453-1.786-1.003-2.588-1.64
		c-0.62-0.493-1.188-1.048-1.695-1.657c-0.8-0.948-1.457-2.004-1.953-3.14c-0.159-0.367-0.301-0.742-0.421-1.123
		c-0.482-1.523-0.725-2.944-0.725-4.262c-0.004-0.956,0.067-1.911,0.216-2.855c0.169-1.047,0.44-2.005,0.812-2.875
		c0.102-0.24,0.213-0.477,0.334-0.709c0.503-0.978,1.12-1.892,1.838-2.724c0.481-0.554,1.014-1.062,1.591-1.517
		c1.332-1.06,2.854-1.858,4.481-2.351c0.767-0.233,1.549-0.415,2.34-0.544c0.723-0.119,1.455-0.179,2.187-0.182h28.081V37.09
		h-27.994c-0.571,0-1.025,0.063-1.359,0.189c-0.008,0.003-0.017,0.005-0.023,0.008c-0.118,0.045-0.23,0.101-0.338,0.166
		c-0.121,0.072-0.223,0.154-0.31,0.244c-0.035,0.037-0.068,0.077-0.1,0.118c-0.097,0.129-0.172,0.273-0.224,0.427
		c-0.03,0.09-0.051,0.183-0.063,0.277c-0.028,0.249-0.044,0.491-0.044,0.725c0.009,0.137,0.023,0.273,0.044,0.409
		c0.023,0.138,0.053,0.265,0.089,0.379c0.032,0.108,0.076,0.212,0.132,0.311c0.058,0.105,0.126,0.204,0.205,0.294
		c0.098,0.112,0.214,0.206,0.345,0.277c0.169,0.089,0.353,0.149,0.543,0.177c0.068,0.01,0.135,0.017,0.203,0.021
		c0.263,0.014,0.524,0.021,0.789,0.022c0.009,0,0.018,0,0.024,0h17.709c1.123-0.005,2.245,0.082,3.354,0.261
		c1.289,0.215,2.467,0.562,3.535,1.041c0.196,0.088,0.391,0.181,0.583,0.28c1.099,0.558,2.13,1.239,3.076,2.029
		c0.692,0.584,1.326,1.236,1.89,1.948c1.259,1.596,2.174,3.333,2.746,5.208c0.271,0.877,0.482,1.77,0.636,2.673
		c0.145,0.846,0.218,1.7,0.222,2.556c0.003,0.936-0.06,1.871-0.188,2.797c-0.116,0.848-0.303,1.684-0.561,2.5
		c-0.279,0.891-0.634,1.758-1.058,2.592c-0.271,0.531-0.58,1.047-0.92,1.539c-0.776,1.135-1.723,2.146-2.805,2.993
		c-0.019,0.013-0.034,0.024-0.053,0.038c-1.049,0.814-2.192,1.502-3.405,2.045c-1.155,0.518-2.363,0.907-3.604,1.164
		c-0.691,0.145-1.391,0.248-2.095,0.311C189.637,73.149,189.185,73.171,188.733,73.172z M502.108,46.803v26.369h-11.427V46.803
		c0.003-0.755-0.068-1.509-0.218-2.25c-0.121-0.608-0.308-1.201-0.552-1.771c-0.44-1.038-1.063-1.988-1.84-2.806
		c-0.081-0.084-0.164-0.167-0.247-0.249c-0.879-0.85-1.911-1.501-3.099-1.955c-1.187-0.454-2.468-0.681-3.845-0.681h-19.995v36.08
		H449.46V31.334c-0.005-0.685,0.114-1.366,0.354-2.008c0.027-0.071,0.057-0.142,0.086-0.211c0.293-0.688,0.702-1.289,1.229-1.801
		c0.526-0.512,1.144-0.916,1.847-1.208c0.71-0.294,1.473-0.444,2.24-0.44h25.752c0.979,0.003,1.96,0.072,2.93,0.208
		c0.543,0.075,1.082,0.167,1.619,0.275c1.584,0.325,3.127,0.825,4.599,1.494c0.05,0.022,0.1,0.044,0.147,0.066
		c1.594,0.733,3.098,1.647,4.481,2.724c1.35,1.051,2.542,2.287,3.545,3.672c0.079,0.108,0.157,0.218,0.234,0.328
		c0.804,1.157,1.476,2.401,1.999,3.709c0.229,0.564,0.436,1.138,0.616,1.718C501.784,41.911,502.108,44.226,502.108,46.803z
		 M100.316,10.153v11.425H75.135v51.593H63.708V21.579H38.485V10.153H100.316z M241.687,47.243l26.896,25.929h-16.479
		l-23.026-22.235c-0.612-0.543-1.095-1.215-1.414-1.967c-0.265-0.643-0.397-1.341-0.397-2.095c0-0.112,0.003-0.223,0.009-0.334
		c0.055-0.804,0.271-1.589,0.638-2.307c0.362-0.713,0.88-1.337,1.516-1.824l20.874-16.831h18.281L241.687,47.243z M733.436,25.666
		v11.426h-25.708c-0.45-0.003-0.899,0.035-1.343,0.114c-0.904,0.166-1.63,0.516-2.175,1.051c-0.7,0.688-1.091,1.658-1.171,2.91
		c-0.011,0.165-0.016,0.331-0.015,0.496v31.51H691.6v-31.51c-0.004-0.934,0.059-1.866,0.186-2.791
		c0.117-0.842,0.306-1.672,0.563-2.482c0.294-0.932,0.673-1.834,1.131-2.697c0.261-0.488,0.55-0.959,0.868-1.412
		c0.727-1.044,1.594-1.984,2.576-2.793c0.1-0.081,0.2-0.161,0.303-0.239c1.049-0.815,2.192-1.501,3.406-2.044
		c1.153-0.518,2.362-0.908,3.604-1.165c0.643-0.133,1.293-0.233,1.947-0.299c0.483-0.049,0.971-0.074,1.458-0.075H733.436
		L733.436,25.666z M224.373,5.583v67.589h-11.427V5.583H224.373z"/>
</g>
</svg>